<svg xmlns="http://www.w3.org/2000/svg" viewBox="0 0 32 40" x="0px" y="0px"><g data-name="Layer 22"><path d="M8.29,4.29,5,7.59,3.71,6.29A1,1,0,0,0,2.29,7.71l2,2a1,1,0,0,0,1.42,0l4-4A1,1,0,1,0,8.29,4.29Z"/><path d="M8,13H4a1,1,0,0,0-1,1v4a1,1,0,0,0,1,1H8a1,1,0,0,0,1-1V14A1,1,0,0,0,8,13ZM7,17H5V15H7Z"/><path d="M8,22H4a1,1,0,0,0-1,1v4a1,1,0,0,0,1,1H8a1,1,0,0,0,1-1V23A1,1,0,0,0,8,22ZM7,26H5V24H7Z"/><path d="M13,15h8a1,1,0,0,0,0-2H13a1,1,0,0,0,0,2Z"/><path d="M29,17H13a1,1,0,0,0,0,2H29a1,1,0,0,0,0-2Z"/><path d="M13,24h8a1,1,0,0,0,0-2H13a1,1,0,0,0,0,2Z"/><path d="M29,26H13a1,1,0,0,0,0,2H29a1,1,0,0,0,0-2Z"/><path d="M13,6h8a1,1,0,0,0,0-2H13a1,1,0,0,0,0,2Z"/><path d="M13,10H29a1,1,0,0,0,0-2H13a1,1,0,0,0,0,2Z"/></g><text x="0" y="47" fill="#000000" font-size="5px" font-weight="bold" font-family="'Helvetica Neue', Helvetica, Arial-Unicode, Arial, Sans-serif">Created by Ahmad Roaayala</text><text x="0" y="52" fill="#000000" font-size="5px" font-weight="bold" font-family="'Helvetica Neue', Helvetica, Arial-Unicode, Arial, Sans-serif">from the Noun Project</text></svg>