<svg xmlns="http://www.w3.org/2000/svg" version="1.1" viewBox="-5.0 -10.0 110.0 135.0">
 <path d="m16.156 32.781c0.45703 2.3008 1.3555 4.457 2.6562 6.418 0.14453 0.21875 0.125 0.48828-0.050781 0.66797l-2.1133 2.1133c-0.60547 0.61328-0.60547 1.6055 0 2.207l2.168 2.168c0.60547 0.60547 1.5938 0.60547 2.207 0l2.1133-2.1133c0.17578-0.17578 0.44922-0.19922 0.66797-0.050782 1.957 1.3008 4.1133 2.1992 6.418 2.6562 0.26172 0.050782 0.4375 0.26172 0.4375 0.51172v2.9883c0 0.86328 0.69922 1.5625 1.5625 1.5625h3.0625c0.85547 0 1.5625-0.69922 1.5625-1.5625v-2.9883c0-0.25 0.17578-0.45703 0.4375-0.51172 2.3008-0.45703 4.457-1.3555 6.4062-2.6562 0.23047-0.14453 0.5-0.125 0.67578 0.050782l2.1133 2.1133c0.59375 0.58203 1.6133 0.59375 2.207 0l2.168-2.168c0.60547-0.60547 0.60547-1.5938 0-2.207l-2.1133-2.1133c-0.17578-0.17578-0.19922-0.44922-0.050782-0.66797 1.3008-1.957 2.1992-4.1133 2.6562-6.418 0.050782-0.26172 0.26172-0.4375 0.51172-0.4375h2.9883c0.86328 0 1.5625-0.69922 1.5625-1.5625v-3.0625c0-0.85547-0.69922-1.5625-1.5625-1.5625h-2.9883c-0.25 0-0.45703-0.17578-0.51172-0.4375-0.45703-2.3008-1.3555-4.457-2.6562-6.418-0.14453-0.21875-0.125-0.48828 0.050782-0.66797l2.1133-2.1133c0.60547-0.60547 0.60547-1.6055 0-2.207l-2.168-2.168c-0.59375-0.58203-1.625-0.58203-2.207 0l-2.1133 2.1133c-0.17578 0.17578-0.44922 0.19922-0.67578 0.050782-1.9492-1.3008-4.1055-2.1992-6.4062-2.6562-0.26172-0.050782-0.4375-0.26172-0.4375-0.51172v-2.9883c0-0.86328-0.70703-1.5625-1.5625-1.5625h-3.0625c-0.86328 0-1.5625 0.69922-1.5625 1.5625v2.9883c0 0.25-0.17578 0.45703-0.4375 0.51172-2.3008 0.45703-4.457 1.3555-6.418 2.6562-0.21875 0.14453-0.48828 0.125-0.66797-0.050782l-2.1133-2.1133c-0.61328-0.60547-1.6055-0.60547-2.207 0l-2.168 2.168c-0.60547 0.60547-0.60547 1.6055 0 2.207l2.1133 2.1133c0.17578 0.17578 0.19922 0.44922 0.050781 0.67578-1.3008 1.9492-2.1992 4.1055-2.6562 6.4062-0.050781 0.26172-0.26172 0.4375-0.51172 0.4375h-2.9883c-0.86328 0-1.5625 0.70703-1.5625 1.5625v3.0625c0 0.86328 0.69922 1.5625 1.5625 1.5625h2.9883c0.25 0 0.45703 0.17578 0.51172 0.4375zm7.75-3.543c0-5.4258 4.418-9.8438 9.8438-9.8438s9.8438 4.418 9.8438 9.8438-4.418 9.8438-9.8438 9.8438-9.8438-4.418-9.8438-9.8438z"/>
 <path d="m87.344 67.676h-2.9883c-0.25 0-0.45703-0.1875-0.51172-0.44922-0.45703-2.3008-1.3555-4.457-2.6562-6.4062-0.14453-0.21875-0.125-0.5 0.050781-0.67578l2.1133-2.1133c0.29297-0.29297 0.45703-0.6875 0.45703-1.1055s-0.16797-0.8125-0.45703-1.1055l-2.168-2.168c-0.60547-0.60547-1.5938-0.60547-2.207 0l-2.1133 2.125c-0.17578 0.16797-0.44922 0.1875-0.66797 0.042968-1.957-1.3008-4.1133-2.1992-6.418-2.6562-0.26172-0.050781-0.4375-0.26172-0.4375-0.51172v-2.9883c0-0.86328-0.69922-1.5625-1.5625-1.5625h-3.0625c-0.85547 0-1.5625 0.69922-1.5625 1.5625v2.9883c0 0.25-0.17578 0.45703-0.4375 0.51172-2.3008 0.45703-4.457 1.3555-6.4062 2.6562-0.21875 0.14453-0.5 0.125-0.67578-0.042968l-2.1133-2.125c-0.60547-0.60547-1.6055-0.60547-2.207 0l-2.168 2.168c-0.29297 0.29297-0.45703 0.6875-0.45703 1.1055s0.16797 0.8125 0.45703 1.1055l2.1133 2.1133c0.17578 0.17578 0.19922 0.45703 0.050782 0.67578-1.3008 1.9492-2.1992 4.1055-2.6562 6.4062-0.050782 0.26172-0.26172 0.44922-0.51172 0.44922h-2.9883c-0.86328 0-1.5625 0.69922-1.5625 1.5625v3.0508c0 0.86328 0.69922 1.5625 1.5625 1.5625h2.9883c0.25 0 0.45703 0.17578 0.51172 0.4375 0.45703 2.3008 1.3555 4.457 2.6562 6.418 0.14453 0.21875 0.125 0.48828-0.050782 0.66797l-2.1133 2.1133c-0.29297 0.30078-0.45703 0.6875-0.45703 1.1055s0.16797 0.8125 0.45703 1.1055l2.168 2.168c0.60547 0.61328 1.6055 0.60547 2.207 0l2.1133-2.1133c0.17578-0.17578 0.45703-0.19922 0.67578-0.050781 1.9492 1.3008 4.1055 2.1992 6.4062 2.6562 0.26172 0.050781 0.4375 0.26172 0.4375 0.51172v2.9883c0 0.86328 0.70703 1.5625 1.5625 1.5625h3.0625c0.86328 0 1.5625-0.69922 1.5625-1.5625v-2.9883c0-0.25 0.17578-0.45703 0.4375-0.51172 2.3008-0.45703 4.457-1.3555 6.418-2.6562 0.21875-0.14453 0.48828-0.125 0.66797 0.050781l2.1133 2.1133c0.61328 0.61328 1.6055 0.60547 2.207 0l2.168-2.1562c0.29297-0.30078 0.45703-0.69922 0.45703-1.1133 0-0.41797-0.16797-0.80078-0.45703-1.1055l-2.1133-2.1133c-0.17578-0.17578-0.19922-0.44922-0.050781-0.66797 1.3008-1.957 2.1992-4.1133 2.6562-6.418 0.050781-0.26172 0.26172-0.4375 0.51172-0.4375h2.9883c0.86328 0 1.5625-0.69922 1.5625-1.5625v-3.0508c0-0.86328-0.69922-1.5625-1.5625-1.5625zm-11.25 3.0859c0 5.4258-4.418 9.8438-9.8438 9.8438s-9.8438-4.418-9.8438-9.8438 4.418-9.8438 9.8438-9.8438 9.8438 4.418 9.8438 9.8438z"/>
 <path d="m44.199 84.512c-16.906-2.8242-29.188-17.332-29.188-34.512 0-0.88672 0.03125-1.793 0.10547-2.6758 0.019531-0.29297-0.19922-0.54297-0.48047-0.5625-0.29297-0.019531-0.54297 0.19922-0.5625 0.48047-0.074219 0.91797-0.10547 1.8438-0.10547 2.7617 0 17.688 12.637 32.625 30.051 35.531h0.082031c0.25 0 0.46875-0.17578 0.51172-0.4375 0.050781-0.28125-0.14453-0.55078-0.42578-0.60547z"/>
 <path d="m55.801 15.488c16.918 2.8242 29.188 17.332 29.188 34.512 0 0.29297 0.23047 0.51953 0.51953 0.51953 0.29297 0 0.51953-0.23047 0.51953-0.51953 0-17.688-12.645-32.637-30.062-35.531-0.28125-0.050781-0.55078 0.14453-0.60547 0.42578-0.050781 0.28125 0.14453 0.55078 0.42578 0.60547z"/>
<text x="0.0" y="117.5" font-size="5.0" font-weight="bold" font-family="Arbeit Regular, Helvetica, Arial-Unicode, Arial, Sans-serif" fill="#000000">Created by Ladang Visual</text><text x="0.0" y="122.5" font-size="5.0" font-weight="bold" font-family="Arbeit Regular, Helvetica, Arial-Unicode, Arial, Sans-serif" fill="#000000">from Noun Project</text></svg>