<svg xmlns="http://www.w3.org/2000/svg" version="1.1" viewBox="-5.0 -10.0 110.0 135.0">
 <path d="m39.168 12.082c-1.668-1.668-4.168-1.668-5.832 0l-11.25 11.25-4.3789-4.375c-1.668-1.668-4.168-1.668-5.832 0-1.668 1.668-1.668 4.168 0 5.832l7.293 7.293c0.625 0.83594 1.6641 1.25 2.707 1.25s2.082-0.41797 2.918-1.25l14.168-14.168c1.6641-1.6641 1.6641-4.3711 0.20703-5.832z"/>
 <path d="m50 29.168h35.418c2.293 0 4.168-1.875 4.168-4.168s-1.875-4.168-4.168-4.168h-35.418c-2.293 0-4.168 1.875-4.168 4.168s1.875 4.168 4.168 4.168z"/>
 <path d="m50 54.582h35.418c2.293 0 4.168-1.875 4.168-4.168 0-2.293-1.875-4.168-4.168-4.168l-35.418 0.003906c-2.293 0-4.168 1.875-4.168 4.168 0 2.2891 1.875 4.1641 4.168 4.1641z"/>
 <path d="m50 79.793h35.418c2.293 0 4.168-1.875 4.168-4.168s-1.875-4.168-4.168-4.168h-35.418c-2.293 0-4.168 1.875-4.168 4.168s1.875 4.168 4.168 4.168z"/>
 <path d="m36.457 43.125c0-2.293-1.875-4.168-4.168-4.168h-13.746c-2.293 0-4.168 1.875-4.168 4.168v13.543c0 2.293 1.875 4.168 4.168 4.168h13.543c2.293 0 4.168-1.875 4.168-4.168l-0.003906-13.543zm-8.332 9.582h-5.207v-5.207h5.207z"/>
 <path d="m32.293 64.793h-13.75c-2.293 0-4.168 1.875-4.168 4.168v13.543c0 2.293 1.875 4.168 4.168 4.168h13.543c2.293 0 4.168-1.875 4.168-4.168v-13.543c0.20312-2.293-1.6719-4.168-3.9609-4.168zm-4.168 13.539h-5.207v-5.207h5.207z"/>
<text x="0.0" y="117.5" font-size="5.0" font-weight="bold" font-family="Arbeit Regular, Helvetica, Arial-Unicode, Arial, Sans-serif" fill="#000000">Created by Rahmat Sigit Prasetyo</text><text x="0.0" y="122.5" font-size="5.0" font-weight="bold" font-family="Arbeit Regular, Helvetica, Arial-Unicode, Arial, Sans-serif" fill="#000000">from Noun Project</text></svg>