<svg xmlns="http://www.w3.org/2000/svg" version="1.1" viewBox="-5.0 -10.0 110.0 135.0">
 <path d="m6.2617 71.191v-0.015625c-0.003907-0.09375-0.007813-0.23047-0.007813-0.41016v-0.089844c0-10.742 6.3789-20 15.555-24.184 4.6445 4.0195 10.699 6.457 17.316 6.457 4.5586 0 8.8477-1.1562 12.594-3.1875l-12.301 21.887c-1.4766 2.6289-2.1562 5.6211-1.9766 8.6133 0.03125 0.47656 0.082032 0.95312 0.15625 1.4297l0.17188 1.1172h-19.395c-3.2148 0-6.3008-1.2773-8.5742-3.5508-2.1523-2.1523-3.4141-5.0352-3.5391-8.0664zv0zm32.863-64.941c11.16 0 20.223 9.0625 20.223 20.227 0 11.16-9.0625 20.227-20.223 20.227-11.164 0-20.227-9.0625-20.227-20.227 0-11.164 9.0625-20.227 20.227-20.227zm45.512 42.352-20.746 36.914c-1.0664 1.8945-2.7539 3.3594-4.7812 4.1484l-9.5352 3.6992c-0.88281 0.34375-1.8711 0.26562-2.6914-0.20703-0.82031-0.47266-1.3828-1.293-1.5273-2.2305l-1.5742-10.188c-0.042969-0.28516-0.074219-0.57031-0.09375-0.85938-0.10938-1.7969 0.29688-3.5898 1.1836-5.168l20.848-37.09 18.922 10.98zm-15.859-16.43 4.6094-8.2031c1.2266-2.1836 3.2773-3.7852 5.6914-4.4492 2.4141-0.66016 4.9961-0.32812 7.168 0.92188l2.7031 1.5625c4.4492 2.5664 6 8.2344 3.4844 12.711l-4.7383 8.4336-18.922-10.98z" fill-rule="evenodd"/>
<text x="0.0" y="117.5" font-size="5.0" font-weight="bold" font-family="Arbeit Regular, Helvetica, Arial-Unicode, Arial, Sans-serif" fill="#000000">Created by icelloid</text><text x="0.0" y="122.5" font-size="5.0" font-weight="bold" font-family="Arbeit Regular, Helvetica, Arial-Unicode, Arial, Sans-serif" fill="#000000">from Noun Project</text></svg>