<svg xmlns="http://www.w3.org/2000/svg" xmlns:xlink="http://www.w3.org/1999/xlink" version="1.1" x="0px" y="0px" viewBox="0 0 30 37.5" style="enable-background:new 0 0 30 30;" xml:space="preserve"><g><path d="M18.1596184,26.6828728h4.4846592c2.4009895,0,4.3555489-1.9545574,4.3555489-4.355608V7.6827278   c0-2.4109821-1.9545593-4.3656015-4.3555489-4.3656015h-4.4846592c-1.6271839,0-2.956666,1.3295431-2.956666,2.9566669   c0,1.6271844,1.3294821,2.956728,2.956666,2.956728h2.9268742v11.5488901h-2.9268742   c-1.6271839,0-2.956666,1.3196106-2.956666,2.9567261C15.2029524,25.3633232,16.5324345,26.6828728,18.1596184,26.6828728z"/><path d="M9.3597116,9.5082989c0.2975807-0.2381124,0.7045279-0.2777777,1.0516443-0.1091251   c0.3374271,0.1587219,0.5556774,0.5060196,0.5556774,0.8929834v1.7859058h6.0424423   c0.5456238,0,0.9921761,0.4365597,0.9921761,0.9921761v3.8694525c0,0.5457458-0.4465523,0.992178-0.9921761,0.992178h-6.0424423   v1.785965c0,0.3770332-0.2182503,0.7242699-0.5556774,0.8929234c-0.3471165,0.1686535-0.7540636,0.1190567-1.0516443-0.1091251   l-5.9828539-4.7128391c-0.4932175-0.3904848-0.5111911-1.1530094,0-1.557724L9.3597116,9.5082989z"/></g><text x="0" y="45" fill="#000000" font-size="5px" font-weight="bold" font-family="'Helvetica Neue', Helvetica, Arial-Unicode, Arial, Sans-serif">Created by Smashing Stocks</text><text x="0" y="50" fill="#000000" font-size="5px" font-weight="bold" font-family="'Helvetica Neue', Helvetica, Arial-Unicode, Arial, Sans-serif">from the Noun Project</text></svg>