<svg xmlns="http://www.w3.org/2000/svg" version="1.1" viewBox="-5.0 -10.0 110.0 135.0">
 <path d="m46.613 52.453c12.406 0 22.488-10.094 22.488-22.488-1.2344-29.832-43.734-29.824-44.973 0 0 12.391 10.094 22.488 22.488 22.488z"/>
 <path d="m60.977 80.02c-1.6758 1.7539-2.1797 4.8281-2.7656 7.0938l-1.0781 4.3125c-0.14844 0.5625 0.40234 1.0898 0.95313 0.95312l7.5938-1.9062c1.4062-0.34375 2.7031-1.0156 3.8125-1.9375z"/>
 <path d="m77.867 63.066-13.609 13.609c1.4961 1.4883 7.3398 7.3594 8.582 8.5742 0.26562-0.26953 13.668-13.66 13.605-13.609-0.63281-0.60938-8.5781-8.5781-8.5781-8.5781z"/>
 <path d="m91.977 57.516c-2.3594-2.3594-6.2188-2.3594-8.5781 0l-2.2188 2.2188c2.1016 2.1172 6.4531 6.457 8.5781 8.5938l2.2188-2.2188c2.3633-2.2539 2.3594-6.332 0-8.5938z"/>
 <path d="m58.238 76.035c1.0469-1.0547 15.699-15.695 17.203-17.203 0.95703-0.94531 2.8047-2.8125 3.7656-3.7656-2.7734-1.2578-5.668-2.2539-8.5312-3.1094-1.3281-0.39062-2.7188-0.10938-3.875 0.79688-11.316 9.5156-29.02 9.5469-40.316 0.046875-1.1094-0.875-2.5625-1.1719-3.875-0.76562-2.5156 0.75-5.0625 1.6562-7.5312 2.6875-5.3594 2.1875-8.8281 7.3438-8.8281 13.125v14.125c0 2.8281 2.3281 5.1406 5.1875 5.1406h41.941c0.89062-3.8281 1.8398-8.3203 4.8594-11.078z"/>
<text x="0.0" y="117.5" font-size="5.0" font-weight="bold" font-family="Arbeit Regular, Helvetica, Arial-Unicode, Arial, Sans-serif" fill="#000000">Created by Sentya Irma</text><text x="0.0" y="122.5" font-size="5.0" font-weight="bold" font-family="Arbeit Regular, Helvetica, Arial-Unicode, Arial, Sans-serif" fill="#000000">from Noun Project</text></svg>