<svg xmlns="http://www.w3.org/2000/svg" xmlns:xlink="http://www.w3.org/1999/xlink" version="1.1" x="0px" y="0px" viewBox="0 0 81 100" style="enable-background:new 0 0 81 80;" xml:space="preserve"><g><g><path d="M51,1.4c3.4,0.9,6.6,2.2,9.6,4l0,0c3,1.8,5.8,3.9,8.3,6.4l0,0c2.5,2.5,4.6,5.3,6.4,8.3l0,0c1.7,3,3.1,6.2,4,9.6l0,0    c0.9,3.4,1.4,6.9,1.4,10.4h0c0,1.6-0.1,3.3-0.3,4.9c0,0.2-0.1,0.4-0.1,0.6c-0.2,1.7-0.6,3.3-1,4.8l0,0c-0.9,3.4-2.3,6.6-4,9.6l0,0    c-1.8,3-3.9,5.8-6.4,8.3l-9.2-9.2c0,0,0,0,0,0l0,0c3.8-3.8,6.3-8.6,7.4-13.8c1-5.2,0.5-10.7-1.5-15.6c-2-4.9-5.5-9.1-9.9-12.1    c-4.4-3-9.7-4.5-15-4.5v0V0c0,0,0,0,0,0v0c1.6,0,3.2,0.1,4.9,0.3c0.2,0,0.5,0.1,0.7,0.1C47.9,0.6,49.5,1,51,1.4L51,1.4z"/><path d="M21.6,59.1l-9.2,9.2c2.5,2.5,5.2,4.6,8.3,6.4l6.5-11.3C25.1,62.2,23.2,60.8,21.6,59.1z"/><path d="M37.1,66.8c-1.2-0.2-2.4-0.4-3.5-0.7l-3.4,12.6c1.7,0.4,3.4,0.8,5.1,1c1.8,0.2,3.5,0.3,5.2,0.4l0-13    C39.5,67,38.3,66.9,37.1,66.8z"/><path d="M47.6,66.1c2.3-0.6,4.5-1.5,6.5-2.7l6.5,11.3c-3,1.7-6.2,3.1-9.6,4L47.6,66.1z"/><path d="M14.6,47c0.6,2.3,1.5,4.5,2.7,6.5L6,60c-1.7-3-3.1-6.2-4-9.6L14.6,47z"/><path d="M27.2,16.6c2-1.2,4.2-2.1,6.5-2.7L30.3,1.3c-3.4,0.9-6.6,2.3-9.6,4L27.2,16.6z"/><path d="M21.6,20.9c-1.7,1.7-3.1,3.5-4.3,5.6L6,20c1.8-3,3.9-5.8,6.4-8.3L21.6,20.9z"/><path d="M1,34.8c0.2-1.8,0.6-3.5,1-5.1L14.6,33c-0.3,1.1-0.5,2.3-0.7,3.5c-0.2,1.2-0.2,2.4-0.2,3.5l-13,0    C0.7,38.3,0.8,36.5,1,34.8z"/></g></g><text x="0" y="95" fill="#000000" font-size="5px" font-weight="bold" font-family="'Helvetica Neue', Helvetica, Arial-Unicode, Arial, Sans-serif">Created by Laura</text><text x="0" y="100" fill="#000000" font-size="5px" font-weight="bold" font-family="'Helvetica Neue', Helvetica, Arial-Unicode, Arial, Sans-serif">from the Noun Project</text></svg>