<svg xmlns="http://www.w3.org/2000/svg" version="1.1" viewBox="-5.0 -10.0 110.0 135.0">
 <path d="m50 12.5c-22.977 0-41.668 18.691-41.668 41.668 0 10.656 4.0195 20.785 11.32 28.516 0.39453 0.41797 0.94141 0.65234 1.5156 0.65234h57.668c0.57422 0 1.1211-0.23438 1.5156-0.65234 7.2969-7.7305 11.32-17.855 11.32-28.516 0-22.977-18.691-41.668-41.668-41.668zm-15.605 31.301c-1.9844 2.9727-3.1445 6.5391-3.1445 10.371 0 1.1484-0.93359 2.0742-2.082 2.0742h-10.418c-1.168 0-2.0859-0.96484-2.082-2.1328 0.011719-7.5547 2.5703-14.508 6.8359-20.098 0.77734-1.0156 2.2578-1.1445 3.1641-0.24219l7.4453 7.4453c0.6875 0.6875 0.82422 1.7695 0.28516 2.5781zm2.6602-5.5234-7.4453-7.4453c-0.90625-0.90625-0.77344-2.3906 0.24609-3.168 4.4766-3.4102 9.832-5.707 15.668-6.4922 1.2617-0.17188 2.3906 0.79688 2.3906 2.0703v10.52c0 0.96484-0.65234 1.832-1.6016 2.0234-2.4336 0.48828-4.6953 1.4492-6.6914 2.7773-0.80469 0.53906-1.8867 0.39453-2.5703-0.29297zm11.824 34.543c-2.5391-0.44141-4.6094-2.5391-5.0391-5.082-0.39062-2.3242 0.51953-4.4219 2.0938-5.7812 1.1172-5.832 2.5117-12.711 3.3438-16.773 0.16016-0.78906 1.2852-0.78906 1.4453 0 0.83203 4.0664 2.2266 10.941 3.3438 16.773 1.3281 1.1445 2.1836 2.8203 2.1836 4.7109 0 3.8203-3.4258 6.8359-7.3711 6.1523zm11.492-34.254c-1.9961-1.332-4.2578-2.293-6.6914-2.7773-0.94531-0.19141-1.6016-1.0586-1.6016-2.0234v-10.52c0-1.2734 1.1328-2.2422 2.3906-2.0703 5.8359 0.78906 11.191 3.082 15.668 6.4922 1.0195 0.77734 1.1523 2.2617 0.24609 3.168l-7.4453 7.4453c-0.68359 0.68359-1.7656 0.82812-2.5703 0.29297zm20.879 17.684h-10.418c-1.1484 0-2.082-0.92578-2.082-2.0742 0-3.8359-1.1602-7.3984-3.1445-10.371-0.53906-0.80859-0.40234-1.8906 0.28516-2.5781l7.4453-7.4453c0.90234-0.90234 2.3867-0.77344 3.1641 0.24219 4.2656 5.5859 6.8242 12.543 6.8359 20.098 0 1.168-0.91406 2.1328-2.082 2.1328z"/>
<text x="0.0" y="117.5" font-size="5.0" font-weight="bold" font-family="Arbeit Regular, Helvetica, Arial-Unicode, Arial, Sans-serif" fill="#000000">Created by kumakamu</text><text x="0.0" y="122.5" font-size="5.0" font-weight="bold" font-family="Arbeit Regular, Helvetica, Arial-Unicode, Arial, Sans-serif" fill="#000000">from Noun Project</text></svg>