<svg xmlns="http://www.w3.org/2000/svg" xmlns:xlink="http://www.w3.org/1999/xlink" version="1.1" x="0px" y="0px" viewBox="0 0 24 30" enable-background="new 0 0 24 24" xml:space="preserve"><g><path d="M14.318,6.518c0.025,0.009,0.051,0.014,0.076,0.014c0.091,0,0.177-0.056,0.209-0.147l0.475-1.305   c0.042-0.116-0.017-0.244-0.133-0.286c-0.115-0.042-0.244,0.018-0.286,0.133l-0.475,1.305C14.142,6.348,14.202,6.476,14.318,6.518z   "/><path d="M9.055,4.793C8.94,4.835,8.88,4.963,8.922,5.079l0.475,1.305C9.43,6.475,9.516,6.531,9.607,6.531   c0.025,0,0.051-0.004,0.076-0.014c0.116-0.042,0.175-0.17,0.133-0.286L9.341,4.926C9.299,4.81,9.171,4.751,9.055,4.793z"/><path d="M6.779,6.316C6.7,6.222,6.56,6.21,6.465,6.289c-0.094,0.079-0.106,0.22-0.027,0.314l0.893,1.064   c0.044,0.052,0.107,0.079,0.171,0.079c0.051,0,0.101-0.017,0.143-0.052c0.094-0.079,0.106-0.22,0.027-0.314L6.779,6.316z"/><path d="M5.146,11.45l-1.368-0.241c-0.121-0.022-0.237,0.06-0.258,0.181c-0.021,0.121,0.06,0.237,0.181,0.258l1.368,0.241   c0.013,0.003,0.026,0.003,0.039,0.003c0.106,0,0.201-0.076,0.219-0.184C5.348,11.587,5.267,11.471,5.146,11.45z"/><path d="M4.847,8.498C4.741,8.436,4.605,8.473,4.543,8.58C4.481,8.686,4.518,8.823,4.625,8.884l1.203,0.695   c0.035,0.02,0.074,0.03,0.111,0.03c0.077,0,0.152-0.04,0.193-0.111C6.194,9.39,6.157,9.254,6.05,9.192L4.847,8.498z"/><path d="M12.001,6.109c0.123,0,0.223-0.1,0.223-0.223l0-1.389c0-0.123-0.1-0.223-0.223-0.223c-0.123,0-0.223,0.1-0.223,0.223   l0,1.389C11.777,6.009,11.877,6.109,12.001,6.109z"/><path d="M15.522,8.224c-0.037,0-0.074,0.013-0.103,0.039l-3.003,2.695c-0.158-0.052-0.319-0.078-0.479-0.078   c-0.41,0-0.807,0.167-1.083,0.478c-0.536,0.604-0.46,1.55,0.17,2.108c0.298,0.264,0.668,0.395,1.031,0.395   c0.404,0,0.8-0.161,1.082-0.479c0.383-0.432,0.463-1.062,0.211-1.598l2.315-3.305c0.046-0.066,0.033-0.157-0.029-0.212   C15.601,8.238,15.562,8.224,15.522,8.224z"/><path d="M20.222,11.209l-1.368,0.241c-0.121,0.021-0.203,0.137-0.181,0.258c0.019,0.108,0.113,0.184,0.219,0.184   c0.013,0,0.026-0.001,0.039-0.004l1.368-0.241c0.121-0.021,0.202-0.137,0.181-0.258C20.459,11.268,20.342,11.186,20.222,11.209z"/><path d="M17.22,6.316L16.328,7.38c-0.079,0.094-0.067,0.235,0.028,0.314c0.042,0.035,0.093,0.052,0.143,0.052   c0.064,0,0.127-0.027,0.171-0.08l0.893-1.064c0.079-0.094,0.067-0.235-0.028-0.314C17.44,6.209,17.299,6.222,17.22,6.316z"/><path d="M19.457,8.58c-0.062-0.107-0.198-0.143-0.305-0.082L17.95,9.192c-0.107,0.062-0.143,0.198-0.082,0.305   c0.041,0.071,0.116,0.112,0.193,0.112c0.038,0,0.076-0.01,0.111-0.03l1.203-0.695C19.482,8.823,19.519,8.686,19.457,8.58z"/><rect x="8.902" y="16.581" width="6.195" height="2.523"/><g><path d="M12,0.214C5.491,0.214,0.214,5.491,0.214,12S5.491,23.786,12,23.786c6.509,0,11.786-5.277,11.786-11.786    S18.509,0.214,12,0.214z M16.045,19.103c0,0.478-0.424,0.865-0.948,0.865H8.903c-0.524,0-0.948-0.387-0.948-0.865v-2.522    c0-0.478,0.424-0.865,0.948-0.865h6.195c0.524,0,0.948,0.387,0.948,0.865V19.103z M13.93,12.473    c-0.034,0.446-0.19,0.822-0.46,1.128c-0.354,0.4-0.871,0.675-1.415,0.675c-0.487,0-0.958-0.211-1.327-0.538    c-0.358-0.317-0.585-0.819-0.654-1.265H3.013c0-5.129,4.024-8.987,8.987-8.987c4.963,0,8.987,3.858,8.987,8.987H13.93z"/><rect x="9.85" y="17.446" width="4.3" height="0.792"/></g><g><rect x="9.505" y="16.988" width="4.988" height="1.707"/><path d="M10.269,18.11h3.462v-0.536h-3.462V18.11z"/></g></g><text x="0" y="39" fill="#000000" font-size="5px" font-weight="bold" font-family="'Helvetica Neue', Helvetica, Arial-Unicode, Arial, Sans-serif">Created by Atif Arshad</text><text x="0" y="44" fill="#000000" font-size="5px" font-weight="bold" font-family="'Helvetica Neue', Helvetica, Arial-Unicode, Arial, Sans-serif">from the Noun Project</text></svg>