<svg xmlns="http://www.w3.org/2000/svg" version="1.1" viewBox="-5.0 -10.0 110.0 135.0">
 <path d="m69.84 42.887h-24.496c-1.5508 0-2.9609 0.63281-3.9805 1.6523-1.0195 1.0195-1.6523 2.4297-1.6523 3.9805v2.9609c0 1.5508 0.63281 2.9609 1.6523 3.9805 1.0195 1.0195 2.4297 1.6523 3.9805 1.6523h24.5c0.63281 0 1.1445 0.51562 1.1445 1.1445 0 0.31641-0.12891 0.60156-0.33594 0.80859l-8.0352 8.0352c-1.0859 1.0859-1.6328 2.5234-1.6328 3.9609s0.54297 2.8789 1.6328 3.9648l2.1328 2.1328c1.0898 1.0859 2.5273 1.6289 3.9609 1.6289 1.4375 0 2.8789-0.54297 3.9648-1.6289l23.195-23.195c1.0859-1.0898 1.6289-2.5273 1.6289-3.9688 0-1.4375-0.54297-2.8789-1.6289-3.9648l-23.262-23.258c-1.0781-1.043-2.4883-1.5703-3.8984-1.5703-1.4336 0-2.8711 0.54297-3.957 1.6289l-2.1406 2.1328c-1.0859 1.0898-1.6328 2.5312-1.6328 3.9648 0 1.4375 0.54297 2.875 1.6289 3.9609l8.0391 8.0312c0.44531 0.44531 0.44531 1.1758 0 1.6211-0.22266 0.22266-0.51563 0.33594-0.80859 0.33594zm-53.117 34.551v-54.879c0-0.62891 0.51562-1.1445 1.1445-1.1445h11.223c1.4219 0 2.7188-0.57031 3.6992-1.5195 0.98438-0.98438 1.5781-2.3086 1.5781-3.7578v-3.668c0-1.4492-0.59375-2.7695-1.5508-3.7266-0.95312-0.95703-2.2734-1.5508-3.7266-1.5508h-21.312c-1.4492 0-2.7695 0.59375-3.7266 1.5508-0.95703 0.95703-1.5508 2.2773-1.5508 3.7266v75.062c0 1.4492 0.59375 2.7695 1.5508 3.7266 0.95703 0.95703 2.2773 1.5508 3.7266 1.5508h21.312c1.4219 0 2.7188-0.57031 3.7031-1.5195 0.98438-0.98437 1.5781-2.3086 1.5781-3.7578v-3.668c0-1.4531-0.59375-2.7734-1.5508-3.7266-0.95312-0.95703-2.2773-1.5508-3.7266-1.5508h-11.223c-0.63281 0-1.1445-0.51563-1.1445-1.1445z"/>
<text x="0.0" y="117.5" font-size="5.0" font-weight="bold" font-family="Arbeit Regular, Helvetica, Arial-Unicode, Arial, Sans-serif" fill="#000000">Created by Neneng Fadliyah</text><text x="0.0" y="122.5" font-size="5.0" font-weight="bold" font-family="Arbeit Regular, Helvetica, Arial-Unicode, Arial, Sans-serif" fill="#000000">from Noun Project</text></svg>